<?xml version="1.0" encoding="UTF-8"?>
<svg width="290px" height="110px" viewBox="0 0 290 110" version="1.1" xmlns="http://www.w3.org/2000/svg" xmlns:xlink="http://www.w3.org/1999/xlink">
    <title>ZiioJoy</title>
    <g id="page1" stroke="none" stroke-width="1" fill="none" fill-rule="evenodd">
        <g id="12.9″-iPad-Pro" transform="translate(-305.000000, -534.000000)" fill-rule="nonzero">
            <g id="ZiioJoy" transform="translate(320.613000, 555.596000)">
                <path d="M47.816,61.404 L47.816,56.416 L6.536,56.416 L46.956,5.16 L46.956,0 L2.752,0 L2.752,4.988 L40.42,4.988 L-2.84217094e-14,56.244 L-2.84217094e-14,61.404 L47.816,61.404 Z M59.598,8.686 L59.598,0 L54.18,0 L54.18,8.686 L59.598,8.686 Z M59.598,61.404 L59.598,17.028 L54.18,17.028 L54.18,61.404 L59.598,61.404 Z M75.508,8.686 L75.508,0 L70.09,0 L70.09,8.686 L75.508,8.686 Z M75.508,61.404 L75.508,17.028 L70.09,17.028 L70.09,61.404 L75.508,61.404 Z" id="Zii" fill="#3967A1"></path>
                <path d="M104.662,62.608 C108.044667,62.608 111.040333,61.9916667 113.649,60.759 C116.257667,59.5263333 118.450667,57.8493333 120.228,55.728 C122.005333,53.6066667 123.352667,51.127 124.27,48.289 C125.187333,45.451 125.646,42.4266667 125.646,39.216 C125.646,36.0053333 125.187333,32.981 124.27,30.143 C123.352667,27.305 122.005333,24.8253333 120.228,22.704 C118.450667,20.5826667 116.257667,18.8913333 113.649,17.63 C111.040333,16.3686667 108.044667,15.738 104.662,15.738 C101.279333,15.738 98.2836667,16.3686667 95.675,17.63 C93.0663333,18.8913333 90.8733333,20.5826667 89.096,22.704 C87.3186667,24.8253333 85.9713333,27.305 85.054,30.143 C84.1366667,32.981 83.678,36.0053333 83.678,39.216 C83.678,42.4266667 84.1366667,45.451 85.054,48.289 C85.9713333,51.127 87.3186667,53.6066667 89.096,55.728 C90.8733333,57.8493333 93.0663333,59.5263333 95.675,60.759 C98.2836667,61.9916667 101.279333,62.608 104.662,62.608 Z M104.662,58.136 C102.082,58.136 99.8173333,57.5913333 97.868,56.502 C95.9186667,55.4126667 94.299,53.9793333 93.009,52.202 C91.719,50.4246667 90.7443333,48.4036667 90.085,46.139 C89.4256667,43.8743333 89.096,41.5666667 89.096,39.216 C89.096,36.8653333 89.4256667,34.5576667 90.085,32.293 C90.7443333,30.0283333 91.719,28.0073333 93.009,26.23 C94.299,24.4526667 95.9186667,23.0193333 97.868,21.93 C99.8173333,20.8406667 102.082,20.296 104.662,20.296 C107.242,20.296 109.506667,20.8406667 111.456,21.93 C113.405333,23.0193333 115.025,24.4526667 116.315,26.23 C117.605,28.0073333 118.579667,30.0283333 119.239,32.293 C119.898333,34.5576667 120.228,36.8653333 120.228,39.216 C120.228,41.5666667 119.898333,43.8743333 119.239,46.139 C118.579667,48.4036667 117.605,50.4246667 116.315,52.202 C115.025,53.9793333 113.405333,55.4126667 111.456,56.502 C109.506667,57.5913333 107.242,58.136 104.662,58.136 Z M147.49,62.608 C150.815333,62.608 153.610333,62.2353333 155.875,61.49 C158.139667,60.7446667 159.974333,59.6266667 161.379,58.136 C162.783667,56.6453333 163.801333,54.7533333 164.432,52.46 C165.062667,50.1666667 165.378,47.4433333 165.378,44.29 L165.378,0 L159.53,0 L159.53,41.796 C159.53,44.6053333 159.358,47.0133333 159.014,49.02 C158.67,51.0266667 158.068,52.675 157.208,53.965 C156.348,55.255 155.172667,56.201 153.682,56.803 C152.191333,57.405 150.299333,57.706 148.006,57.706 C144.967333,57.706 142.659667,57.1183333 141.083,55.943 C139.506333,54.7676667 138.374,53.3486667 137.686,51.686 C136.998,50.0233333 136.596667,48.2746667 136.482,46.44 C136.367333,44.6053333 136.281333,43.0286667 136.224,41.71 L130.376,41.71 C130.376,44.4046667 130.605333,47.0133333 131.064,49.536 C131.522667,52.0586667 132.382667,54.2803333 133.644,56.201 C134.905333,58.1216667 136.654,59.6696667 138.89,60.845 C141.126,62.0203333 143.992667,62.608 147.49,62.608 Z M195.478,62.608 C198.860667,62.608 201.856333,61.9916667 204.465,60.759 C207.073667,59.5263333 209.266667,57.8493333 211.044,55.728 C212.821333,53.6066667 214.168667,51.127 215.086,48.289 C216.003333,45.451 216.462,42.4266667 216.462,39.216 C216.462,36.0053333 216.003333,32.981 215.086,30.143 C214.168667,27.305 212.821333,24.8253333 211.044,22.704 C209.266667,20.5826667 207.073667,18.8913333 204.465,17.63 C201.856333,16.3686667 198.860667,15.738 195.478,15.738 C192.095333,15.738 189.099667,16.3686667 186.491,17.63 C183.882333,18.8913333 181.689333,20.5826667 179.912,22.704 C178.134667,24.8253333 176.787333,27.305 175.87,30.143 C174.952667,32.981 174.494,36.0053333 174.494,39.216 C174.494,42.4266667 174.952667,45.451 175.87,48.289 C176.787333,51.127 178.134667,53.6066667 179.912,55.728 C181.689333,57.8493333 183.882333,59.5263333 186.491,60.759 C189.099667,61.9916667 192.095333,62.608 195.478,62.608 Z M195.478,58.136 C192.898,58.136 190.633333,57.5913333 188.684,56.502 C186.734667,55.4126667 185.115,53.9793333 183.825,52.202 C182.535,50.4246667 181.560333,48.4036667 180.901,46.139 C180.241667,43.8743333 179.912,41.5666667 179.912,39.216 C179.912,36.8653333 180.241667,34.5576667 180.901,32.293 C181.560333,30.0283333 182.535,28.0073333 183.825,26.23 C185.115,24.4526667 186.734667,23.0193333 188.684,21.93 C190.633333,20.8406667 192.898,20.296 195.478,20.296 C198.058,20.296 200.322667,20.8406667 202.272,21.93 C204.221333,23.0193333 205.841,24.4526667 207.131,26.23 C208.421,28.0073333 209.395667,30.0283333 210.055,32.293 C210.714333,34.5576667 211.044,36.8653333 211.044,39.216 C211.044,41.5666667 210.714333,43.8743333 210.055,46.139 C209.395667,48.4036667 208.421,50.4246667 207.131,52.202 C205.841,53.9793333 204.221333,55.4126667 202.272,56.502 C200.322667,57.5913333 198.058,58.136 195.478,58.136 Z" id="oJo" fill="#000000"></path>
                <path d="M228.072,77.744 C229.792,77.744 231.211,77.5863333 232.329,77.271 C233.447,76.9556667 234.421667,76.4396667 235.253,75.723 C236.084333,75.0063333 236.844,74.0316667 237.532,72.799 C238.22,71.5663333 238.965333,70.004 239.768,68.112 L259.032,17.028 L253.614,17.028 L239.94,54.868 L225.32,17.028 L219.558,17.028 L237.274,61.232 L235.382,66.22 C234.923333,67.252 234.493333,68.198 234.092,69.058 C233.690667,69.918 233.203333,70.649 232.63,71.251 C232.056667,71.853 231.383,72.326 230.609,72.67 C229.835,73.014 228.846,73.186 227.642,73.186 C227.011333,73.186 226.395,73.143 225.793,73.057 C225.191,72.971 224.574667,72.8706667 223.944,72.756 L223.944,77.314 C224.402667,77.486 224.933,77.5863333 225.535,77.615 C226.137,77.6436667 226.982667,77.6866667 228.072,77.744 Z" id="y" fill="#3967A1"></path>
            </g>
        </g>
    </g>
</svg>